<?xml version="1.0" encoding="UTF-8"?>
<svg width="1200" height="300" viewBox="0 0 1200 300" xmlns="http://www.w3.org/2000/svg">
  <defs>
    <linearGradient id="g" x1="0" x2="1">
      <stop offset="0" stop-color="#04132B"/>
      <stop offset="1" stop-color="#07223F"/>
    </linearGradient>
  </defs>
  <rect width="1200" height="300" rx="16" fill="url(#g)"/>
  <g transform="translate(48,38)">
    <text x="0" y="34" fill="#9EEAF9" font-family="Inter, 'Segoe UI', Roboto, sans-serif" font-size="28" font-weight="700">Dama Sri Ram (Sriram)</text>
    <text x="0" y="70" fill="#B9F6FF" font-family="Inter, 'Segoe UI', Roboto, sans-serif" font-size="18" font-weight="600">AI/ML • DSA • System Design — building real systems</text>
    <rect x="0" y="90" rx="8" width="540" height="104" fill="#061A2B" opacity="0.35" />
    <text x="18" y="126" fill="#CFEFF8" font-family="Inter, 'Segoe UI', Roboto, sans-serif" font-size="14">Passionate Computer Science undergrad specializing in Generative AI & Cloud Systems — building automation-first, scalable solutions.</text>
  </g>

  <g transform="translate(760,36)">
    <g stroke="#0EA5C9" stroke-opacity="0.12" stroke-width="1">
      <line x1="4" y1="4" x2="4" y2="220"/>
      <line x1="34" y1="4" x2="34" y2="220"/>
      <line x1="64" y1="4" x2="64" y2="220"/>
      <line x1="94" y1="4" x2="94" y2="220"/>
      <line x1="124" y1="4" x2="124" y2="220"/>
      <line x1="154" y1="4" x2="154" y2="220"/>
      <line x1="184" y1="4" x2="184" y2="220"/>
      <line x1="214" y1="4" x2="214" y2="220"/>
      <line x1="244" y1="4" x2="244" y2="220"/>
      <line x1="274" y1="4" x2="274" y2="220"/>
      <line x1="4" y1="4" x2="274" y2="4"/>
      <line x1="4" y1="32" x2="274" y2="32"/>
      <line x1="4" y1="60" x2="274" y2="60"/>
      <line x1="4" y1="88" x2="274" y2="88"/>
      <line x1="4" y1="116" x2="274" y2="116"/>
      <line x1="4" y1="144" x2="274" y2="144"/>
      <line x1="4" y1="172" x2="274" y2="172"/>
      <line x1="4" y1="200" x2="274" y2="200"/>
    </g>
    <circle cx="196" cy="84" r="18" fill="#00E5FF" />
    <rect x="220" y="78" width="86" height="18" rx="6" fill="#083147" />
    <text x="232" y="90" fill="#9EEAF9" font-family="Inter, 'Segoe UI', Roboto, sans-serif" font-size="12">AI • Cloud</text>
  </g>
</svg>
